<svg xmlns="http://www.w3.org/2000/svg" viewBox="0 0 24 24" fill="none">
  <path d="M12 2C6.48 2 2 6.48 2 12C2 17.52 6.48 22 12 22C17.52 22 22 17.52 22 12C22 6.48 17.52 2 12 2ZM12 20C7.59 20 4 16.41 4 12C4 7.59 7.59 4 12 4C16.41 4 20 7.59 20 12C20 16.41 16.41 20 12 20Z" fill="#22C55E"/>
  <path d="M12 6.5C9.24 6.5 7 8.74 7 11.5C7 14.26 9.24 16.5 12 16.5C14.76 16.5 17 14.26 17 11.5C17 8.74 14.76 6.5 12 6.5ZM12 14.5C10.34 14.5 9 13.16 9 11.5C9 9.84 10.34 8.5 12 8.5C13.66 8.5 15 9.84 15 11.5C15 13.16 13.66 14.5 12 14.5Z" fill="#22C55E"/>
  <path d="M12 9.5C10.89 9.5 10 10.39 10 11.5C10 12.61 10.89 13.5 12 13.5C13.11 13.5 14 12.61 14 11.5C14 10.39 13.11 9.5 12 9.5Z" fill="#22C55E"/>
</svg> 