<?xml version="1.0" encoding="UTF-8"?>
<svg width="100" height="100" viewBox="0 0 100 100" fill="none" xmlns="http://www.w3.org/2000/svg">
  <path d="M85.3333 14.25C76.1667 5.08333 63.8333 0 50.8333 0C23 0 0.333333 22.6667 0.333333 50.5C0.333333 59.4167 2.58333 68.1667 6.91667 75.75L0 100L25 93.1667C32.25 97.0833 41.4167 99.1667 50.75 99.1667H50.8333C78.6667 99.1667 100 76.5 100 48.6667C100 35.6667 94.5 23.4167 85.3333 14.25ZM50.8333 90.8333C43.1667 90.8333 35.6667 88.8333 29.0833 85L27.5833 84.0833L12 88.1667L16.1667 73L15.1667 71.4167C11 64.5833 8.83333 57.0833 8.83333 49.5833C8.83333 27.0833 27.5833 8.33333 50.9167 8.33333C61.8333 8.33333 72.0833 12.5833 79.75 20.25C87.4167 27.9167 91.6667 38.1667 91.5833 49.0833C91.5 71.5833 72.75 90.8333 50.8333 90.8333Z" fill="#22C55E"/>
  <path d="M74.5833 61.0833C73.25 60.4167 67.0833 57.4167 65.8333 56.9167C64.5833 56.4167 63.6667 56.1667 62.75 57.5C61.8333 58.8333 59.4167 61.6667 58.5833 62.5833C57.75 63.5 57 63.6667 55.6667 63C54.3333 62.3333 50.25 61 45.5 56.75C41.75 53.4167 39.25 49.3333 38.4167 48C37.5833 46.6667 38.3333 45.9167 39.0833 45.1667C39.75 44.5 40.5833 43.4167 41.3333 42.5833C42.0833 41.75 42.3333 41.1667 42.8333 40.25C43.3333 39.3333 43.0833 38.5 42.75 37.8333C42.4167 37.1667 39.9167 30.9167 38.75 28.25C37.5833 25.6667 36.4167 26 35.5833 26C34.75 25.9167 33.8333 25.9167 32.9167 25.9167C32 25.9167 30.5 26.25 29.25 27.5833C27.9167 28.9167 24.75 31.9167 24.75 38.1667C24.75 44.4167 29.3333 50.4167 30.0833 51.3333C30.8333 52.25 39.9167 66.1667 53.6667 72.25C57.0833 73.75 59.75 74.6667 61.8333 75.3333C65.25 76.4167 68.4167 76.25 70.9167 75.9167C73.6667 75.5 78.75 72.8333 79.9167 69.75C81.0833 66.6667 81.0833 64 80.75 63.3333C80.4167 62.6667 79.5 62.3333 78.1667 61.6667C76.8333 61 74.5833 61.0833 74.5833 61.0833Z" fill="#22C55E"/>
</svg> 